<svg width="18" height="18" viewBox="0 0 18 18" fill="none" xmlns="http://www.w3.org/2000/svg">
	<path d="M3.19615 14.4846C4.04615 13.8731 4.94808 13.3894 5.90193 13.0337C6.85577 12.6779 7.88847 12.5 9 12.5C10.1115 12.5 11.1442 12.6779 12.0981 13.0337C13.0519 13.3894 13.9538 13.8731 14.8039 14.4846C15.4641 13.8013 15.9952 12.9942 16.3971 12.0635C16.799 11.1327 17 10.1115 17 9C17 6.78333 16.2208 4.89583 14.6625 3.3375C13.1042 1.77917 11.2167 1 9 1C6.78333 1 4.89583 1.77917 3.3375 3.3375C1.77917 4.89583 1 6.78333 1 9C1 10.1115 1.20096 11.1327 1.60288 12.0635C2.00481 12.9942 2.5359 13.8013 3.19615 14.4846ZM9.00058 9.5C8.15788 9.5 7.44711 9.21077 6.86827 8.6323C6.28942 8.05385 6 7.34328 6 6.50058C6 5.65788 6.28923 4.94711 6.86768 4.36827C7.44614 3.78942 8.15672 3.5 8.99942 3.5C9.84212 3.5 10.5529 3.78923 11.1317 4.3677C11.7106 4.94615 12 5.65672 12 6.49942C12 7.34212 11.7108 8.05289 11.1323 8.63172C10.5539 9.21057 9.84328 9.5 9.00058 9.5ZM9 18C7.74487 18 6.56987 17.7663 5.475 17.299C4.38013 16.8317 3.42757 16.1929 2.6173 15.3827C1.80705 14.5724 1.16827 13.6199 0.70095 12.525C0.23365 11.4301 0 10.2551 0 9C0 7.74487 0.23365 6.56987 0.70095 5.475C1.16827 4.38013 1.80705 3.42757 2.6173 2.6173C3.42757 1.80705 4.38013 1.16827 5.475 0.70095C6.56987 0.23365 7.74487 0 9 0C10.2551 0 11.4301 0.23365 12.525 0.70095C13.6199 1.16827 14.5724 1.80705 15.3827 2.6173C16.1929 3.42757 16.8317 4.38013 17.299 5.475C17.7663 6.56987 18 7.74487 18 9C18 10.2551 17.7663 11.4301 17.299 12.525C16.8317 13.6199 16.1929 14.5724 15.3827 15.3827C14.5724 16.1929 13.6199 16.8317 12.525 17.299C11.4301 17.7663 10.2551 18 9 18ZM9 17C9.9218 17 10.8289 16.8388 11.7212 16.5163C12.6135 16.1939 13.3846 15.7526 14.0346 15.1923C13.3846 14.6705 12.6327 14.258 11.7788 13.9548C10.925 13.6516 9.99872 13.5 9 13.5C8.00128 13.5 7.0718 13.6484 6.21155 13.9452C5.35128 14.242 4.60256 14.6577 3.96537 15.1923C4.61537 15.7526 5.38653 16.1939 6.27885 16.5163C7.17115 16.8388 8.0782 17 9 17ZM9 8.5C9.56153 8.5 10.0353 8.30705 10.4212 7.92115C10.807 7.53525 11 7.06153 11 6.5C11 5.93847 10.807 5.46475 10.4212 5.07885C10.0353 4.69295 9.56153 4.5 9 4.5C8.43847 4.5 7.96475 4.69295 7.57885 5.07885C7.19295 5.46475 7 5.93847 7 6.5C7 7.06153 7.19295 7.53525 7.57885 7.92115C7.96475 8.30705 8.43847 8.5 9 8.5Z" fill="var(--color-black)" />
</svg>
