<svg width="18" height="17" viewBox="0 0 18 17" fill="none" xmlns="http://www.w3.org/2000/svg">
	<path d="M9 16.6538L8.2423 15.9692C6.61025 14.4782 5.26025 13.2019 4.1923 12.1404C3.12435 11.0788 2.2814 10.1426 1.66345 9.33172C1.0455 8.52082 0.613775 7.78717 0.368275 7.13077C0.122758 6.47435 0 5.81409 0 5.14999C0 3.87819 0.43205 2.81024 1.29615 1.94614C2.16025 1.08204 3.2282 0.649994 4.5 0.649994C5.37948 0.649994 6.20448 0.874994 6.975 1.32499C7.74552 1.77499 8.42052 2.42948 9 3.28844C9.57948 2.42948 10.2545 1.77499 11.025 1.32499C11.7955 0.874994 12.6205 0.649994 13.5 0.649994C14.7718 0.649994 15.8398 1.08204 16.7038 1.94614C17.5679 2.81024 18 3.87819 18 5.14999C18 5.81409 17.8772 6.47435 17.6317 7.13077C17.3862 7.78717 16.9545 8.52082 16.3365 9.33172C15.7186 10.1426 14.8789 11.0788 13.8173 12.1404C12.7558 13.2019 11.4026 14.4782 9.7577 15.9692L9 16.6538ZM9 15.3C10.6 13.8538 11.9167 12.6151 12.95 11.5836C13.9833 10.5522 14.8 9.65738 15.4 8.89904C16 8.14071 16.4167 7.46891 16.65 6.88364C16.8833 6.29839 17 5.72051 17 5.14999C17 4.14999 16.6667 3.31666 16 2.64999C15.3333 1.98333 14.5 1.64999 13.5 1.64999C12.7038 1.64999 11.9692 1.87724 11.2962 2.33172C10.6231 2.7862 10.0205 3.4705 9.48847 4.38462H8.51153C7.96666 3.45769 7.36089 2.77019 6.69423 2.32212C6.02756 1.87404 5.29615 1.64999 4.5 1.64999C3.51282 1.64999 2.68269 1.98333 2.00962 2.64999C1.33654 3.31666 1 4.14999 1 5.14999C1 5.72051 1.11667 6.29839 1.35 6.88364C1.58333 7.46891 2 8.14071 2.6 8.89904C3.2 9.65738 4.01667 10.549 5.05 11.574C6.08333 12.599 7.4 13.841 9 15.3Z" fill="var(--color-black)" />
</svg>
