<svg width="18" height="17" viewBox="0 0 18 17" fill="none" xmlns="http://www.w3.org/2000/svg">
	<path d="M9 16.6539L8.2423 15.9692C6.61025 14.4782 5.26025 13.2019 4.1923 12.1404C3.12435 11.0789 2.2814 10.1426 1.66345 9.33173C1.0455 8.52083 0.613775 7.78718 0.368275 7.13078C0.122758 6.47436 0 5.8141 0 5.15C0 3.8782 0.43205 2.81025 1.29615 1.94615C2.16025 1.08205 3.2282 0.650002 4.5 0.650002C5.37948 0.650002 6.20448 0.875002 6.975 1.325C7.74552 1.775 8.42052 2.42948 9 3.28845C9.57948 2.42948 10.2545 1.775 11.025 1.325C11.7955 0.875002 12.6205 0.650002 13.5 0.650002C14.7718 0.650002 15.8398 1.08205 16.7038 1.94615C17.5679 2.81025 18 3.8782 18 5.15C18 5.8141 17.8772 6.47436 17.6317 7.13078C17.3862 7.78718 16.9545 8.52083 16.3365 9.33173C15.7186 10.1426 14.8789 11.0789 13.8173 12.1404C12.7558 13.2019 11.4026 14.4782 9.7577 15.9692L9 16.6539Z" fill="var(--color-primary)" />
</svg>
