<svg width="1113" height="605" viewBox="0 0 1113 605" fill="none" xmlns="http://www.w3.org/2000/svg">
<path d="M403.046 438.788C450.291 374.85 493.69 310.274 543.282 250.781C586.583 198.835 634.459 150.012 684.623 104.49C756.372 39.3881 870.513 30.5253 964.273 77.2443C1062.04 125.955 1120.49 229.492 1111.43 337.901C1102.31 447.085 1027.93 543.653 922.945 571.647C883.873 582.068 840.046 581.588 799.317 577.485C682.894 565.763 572.309 529.484 462.448 491.549C448.082 486.585 433.796 481.378 417.05 475.422C412.317 482.108 407.313 488.972 402.527 495.98C338.346 589.984 270.838 681.39 190.016 762.297C175.316 777.018 159.464 790.627 143.883 804.454C40.267 896.412 -98.7594 873.868 -178.897 815.565C-277.753 743.639 -317.845 613.567 -272.283 502.831C-231.316 403.246 -158.812 341.668 -48.4769 333.101C-14.5783 330.471 20.438 334.482 54.1854 339.932C167.689 358.269 276.624 393.233 384.322 432.141C390.338 434.317 396.373 436.428 403.04 438.795L403.046 438.788Z" stroke="#FBC839" stroke-width="0.5" stroke-miterlimit="10"/>
<path d="M195.243 -207.389C229.858 -259.631 271.232 -309.032 332.067 -315.614C405.992 -323.615 466.984 -296.961 510.107 -236.212C553.788 -174.681 558.732 -107.62 526.07 -39.7175C495.025 24.8253 461.218 88.04 428.819 151.932C409.351 190.314 390.127 228.828 371.021 267.395C362.369 284.864 352.665 290.242 332.751 279.834C226.847 224.463 118.774 173.089 14.1787 115.397C-68.5954 69.743 -99.3777 -36.5222 -61.771 -123.09C-23.3951 -211.426 79.6156 -240.104 171.989 -214.621C179.037 -212.675 185.953 -210.282 195.243 -207.376V-207.389Z" stroke="#FBC839" stroke-width="0.5" stroke-miterlimit="10"/>
<path d="M195.302 -207.146C227.432 -256.81 272.731 -282.747 329.733 -288.651C398.996 -295.824 456.353 -269.999 497.168 -211.728C538.509 -152.702 543.558 -88.6389 513.368 -24.0107C484.663 37.4223 453.362 97.5666 423.375 158.368C405.36 194.897 387.576 231.55 369.904 268.256C361.896 284.883 352.836 289.959 334.098 279.893C234.454 226.363 132.804 176.633 34.3693 120.893C-43.5265 76.7843 -73.0529 -24.872 -38.3325 -107.298C-2.90204 -191.406 86.6899 -239.125 173.455 -214.214C180.075 -212.313 186.578 -209.986 195.302 -207.153V-207.146Z" stroke="#FBC839" stroke-width="0.5" stroke-miterlimit="10"/>
<path d="M195.204 -207.376C224.632 -255.239 270.542 -268.053 323.836 -273.05C388.589 -279.118 442.625 -253.26 481.593 -196.074C521.073 -138.152 526.636 -75.7986 499.213 -13.3597C473.145 45.9892 444.624 104.056 417.346 162.78C400.956 198.059 384.789 233.457 368.72 268.914C361.442 284.976 353.02 289.788 335.354 279.762C241.364 226.416 145.546 176.738 52.6601 121.262C-20.8439 77.3564 -49.8181 -21.8607 -18.385 -101.538C13.6924 -182.846 93.1069 -239.874 174.665 -214.523C180.884 -212.59 187.005 -210.243 195.21 -207.37L195.204 -207.376Z" stroke="#FBC839" stroke-width="0.5" stroke-miterlimit="10"/>
<path d="M403.25 439.228C448.812 377.033 490.646 314.199 538.49 256.336C580.258 205.817 626.471 158.349 674.899 114.115C744.169 50.8408 854.603 42.4912 945.457 88.2635C1040.18 135.988 1097.01 237.046 1088.53 342.68C1079.97 449.07 1008.24 543.002 906.713 570.03C868.922 580.089 826.516 579.504 787.088 575.408C674.393 563.686 567.286 528.051 460.877 490.799C446.958 485.928 433.125 480.819 416.906 474.974C412.343 481.477 407.517 488.156 402.902 494.974C341.028 586.433 275.927 675.355 197.919 754.007C183.725 768.313 168.426 781.541 153.383 794.98C53.3439 884.348 -81.2512 862.027 -158.956 804.993C-254.801 734.645 -293.926 607.768 -250.12 499.951C-210.725 402.996 -140.718 343.16 -33.9601 335.087C-1.1595 332.608 32.7325 336.606 65.4083 342.003C175.296 360.156 280.799 394.508 385.124 432.706C390.949 434.837 396.801 436.914 403.257 439.235L403.25 439.228Z" stroke="#FBC839" stroke-width="0.5" stroke-miterlimit="10"/>
<path d="M403.467 439.689C447.168 379.341 487.28 318.368 533.203 262.247C573.295 213.247 617.674 167.231 664.202 124.358C730.75 63.0435 837.153 55.2788 924.852 100.091C1016.3 146.817 1071.39 245.291 1063.55 348C1055.65 451.451 986.824 542.574 889.073 568.531C852.689 578.189 811.821 577.486 773.807 573.37C665.169 561.608 561.836 526.598 459.167 490.024C445.735 485.238 432.388 480.221 416.741 474.488C412.369 480.8 407.734 487.276 403.309 493.896C343.98 582.647 281.528 668.925 206.604 745.171C192.975 759.043 178.274 771.857 163.816 784.875C67.7024 871.469 -62.0801 849.325 -137.142 793.606C-229.739 724.868 -267.852 601.345 -225.985 496.625C-188.332 402.45 -121.061 344.482 -18.2144 336.98C13.3831 334.673 46.0654 338.677 77.5643 344.029C183.52 362.043 285.308 395.79 385.959 433.279C391.58 435.376 397.228 437.407 403.454 439.689H403.467Z" stroke="#FBC839" stroke-width="0.5" stroke-miterlimit="10"/>
</svg>
