<svg width="22" height="22" viewBox="0 0 22 22" fill="none" xmlns="http://www.w3.org/2000/svg">
	<rect y="0.111694" width="21.7767" height="21.7767" rx="7.35" fill="var(--color-black)" />
	<path d="M10.8883 4.90689C12.8722 4.90689 13.1074 4.91342 13.8913 4.95044C14.6165 4.98311 15.0107 5.10506 15.272 5.20741C15.6182 5.34242 15.8665 5.50357 16.1256 5.76271C16.3848 6.02186 16.5459 6.27011 16.6809 6.61636C16.7833 6.87768 16.9031 7.27184 16.9379 7.997C16.9727 8.78096 16.9815 9.01615 16.9815 11C16.9815 12.9839 16.9749 13.219 16.9379 14.003C16.9052 14.7282 16.7833 15.1223 16.6809 15.3836C16.5459 15.7299 16.3848 15.9781 16.1256 16.2373C15.8665 16.4964 15.6182 16.6576 15.272 16.7926C15.0107 16.8949 14.6165 17.0147 13.8913 17.0496C13.1074 17.0844 12.8722 17.0931 10.8883 17.0931C8.90449 17.0931 8.6693 17.0866 7.88534 17.0496C7.16018 17.0169 6.76603 16.8949 6.50471 16.7926C6.15846 16.6576 5.9102 16.4964 5.65106 16.2373C5.39192 15.9781 5.23077 15.7299 5.09576 15.3836C4.99341 15.1223 4.87363 14.7282 4.83879 14.003C4.80395 13.219 4.79524 12.9839 4.79524 11C4.79524 9.01615 4.80177 8.78096 4.83879 7.997C4.87146 7.27184 4.99341 6.87768 5.09576 6.61636C5.23077 6.27011 5.39192 6.02186 5.65106 5.76271C5.9102 5.50357 6.15846 5.34242 6.50471 5.20741C6.76603 5.10506 7.16018 4.98529 7.88534 4.95044C8.6693 4.91342 8.90449 4.90689 10.8883 4.90689ZM10.8883 3.56763C8.86965 3.56763 8.61704 3.57634 7.82437 3.61336C7.03388 3.65038 6.49382 3.77451 6.01909 3.95961C5.53129 4.14689 5.11535 4.40167 4.70378 4.81543C4.29002 5.22919 4.03741 5.64294 3.84578 6.13292C3.66285 6.60547 3.53655 7.14553 3.49953 7.9382C3.46251 8.73087 3.4538 8.98348 3.4538 11.0022C3.4538 13.0209 3.46251 13.2735 3.49953 14.0662C3.53655 14.8566 3.66067 15.3967 3.84578 15.8714C4.03523 16.3571 4.29002 16.773 4.70378 17.1846C5.11753 17.5983 5.53129 17.8509 6.02126 18.0426C6.49382 18.2255 7.03388 18.3518 7.82655 18.3888C8.61922 18.4258 8.87183 18.4345 10.8905 18.4345C12.9092 18.4345 13.1618 18.4258 13.9545 18.3888C14.745 18.3518 15.285 18.2277 15.7598 18.0426C16.2454 17.8531 16.6613 17.5983 17.0729 17.1846C17.4867 16.7708 17.7393 16.3571 17.9309 15.8671C18.1138 15.3945 18.2401 14.8545 18.2772 14.0618C18.3142 13.2691 18.3229 13.0165 18.3229 10.9978C18.3229 8.97913 18.3142 8.72652 18.2772 7.93385C18.2401 7.14335 18.116 6.60329 17.9309 6.12856C17.7415 5.64294 17.4867 5.22701 17.0729 4.81543C16.6592 4.40167 16.2454 4.14906 15.7554 3.95743C15.2829 3.77451 14.7428 3.6482 13.9501 3.61118C13.1596 3.57634 12.907 3.56763 10.8883 3.56763Z" fill="var(--color-white)" />
	<path d="M10.8883 7.18262C8.78033 7.18262 7.07086 8.89208 7.07086 11.0001C7.07086 13.108 8.78033 14.8175 10.8883 14.8175C12.9963 14.8175 14.7058 13.108 14.7058 11.0001C14.7058 8.89208 12.9963 7.18262 10.8883 7.18262ZM10.8883 13.4782C9.52074 13.4782 8.41013 12.3698 8.41013 11.0001C8.41013 9.63031 9.52074 8.52188 10.8883 8.52188C12.2559 8.52188 13.3665 9.63031 13.3665 11.0001C13.3665 12.3698 12.2559 13.4782 10.8883 13.4782Z" fill="var(--color-white)" />
	<path d="M14.856 7.92521C15.3491 7.92521 15.7489 7.52547 15.7489 7.03237C15.7489 6.53927 15.3491 6.13953 14.856 6.13953C14.3629 6.13953 13.9632 6.53927 13.9632 7.03237C13.9632 7.52547 14.3629 7.92521 14.856 7.92521Z" fill="var(--color-white)" />
</svg>
