<svg width="93" height="95" viewBox="0 0 93 95" fill="none" xmlns="http://www.w3.org/2000/svg">
<path d="M1.3501 54.3657H4.76658V81.1508H18.9336V81.6974H1.3501V54.3657ZM2.74598 54.9123H1.97157V81.1508H2.74598V54.9123ZM4.14511 54.9123H3.36745V81.1508H4.14511V54.9123Z" fill="#B91C47"/>
<path d="M24.4458 80.9184C24.4458 80.3718 24.872 79.9037 25.4154 79.9037C25.9198 79.9037 26.346 80.3718 26.346 80.9184C26.346 81.4258 25.9198 81.8546 25.4154 81.8546C24.872 81.8546 24.4458 81.4258 24.4458 80.9184Z" fill="#B91C47"/>
<path d="M33.335 53.9369H33.8393L45.989 71.3899L55.4217 54.3264H58.0215V81.6975H54.6441V57.1774L44.9413 74.5912H44.6321L33.9597 59.4818V81.7007H33.3382V53.9402L33.335 53.9369ZM45.6766 72.0151L33.9564 55.1087V56.2413L45.3675 72.5618L45.6766 72.0151ZM45.0551 73.1477L33.9532 57.3345V58.3885L44.7428 73.6943L45.0551 73.1477ZM56.0009 81.1541V54.8763H55.9228L55.2655 56.0481V81.1541H56.0042H56.0009ZM57.3968 54.8763H56.6191V81.1541H57.3968V54.8763Z" fill="#B91C47"/>
<path d="M65.1606 80.9184C65.1606 80.3718 65.5869 79.9037 66.1335 79.9037C66.6379 79.9037 67.0641 80.3718 67.0641 80.9184C67.0641 81.4258 66.6379 81.8546 66.1335 81.8546C65.5869 81.8546 65.1606 81.4258 65.1606 80.9184Z" fill="#B91C47"/>
<path d="M72.5762 76.7777L73.0805 76.4668C74.9449 80.2146 79.1749 81.6189 82.279 81.6189C85.8874 81.6189 89.7302 79.9397 89.7302 75.799C89.7302 71.6583 85.8517 70.2541 82.048 68.6535C78.2801 67.0136 74.4764 65.2165 74.4764 60.7649C74.4764 57.0563 77.2714 53.7765 82.7443 53.7765C85.6174 53.7765 88.9558 54.7519 90.8169 57.8353L90.3126 58.1496C88.4905 55.1054 85.2302 54.3231 82.8614 54.3231C78.6705 54.3231 76.7671 56.6668 76.7671 59.3607C76.7671 63.0693 80.3007 64.4735 84.1434 66.0381C87.9862 67.678 92.0989 69.4325 92.0989 74.4308C92.0989 79.9364 87.0523 82.123 82.5523 82.123C78.7096 82.123 74.5154 80.5223 72.5762 76.7744M90.625 75.0985C90.625 70.7647 86.8213 69.2427 82.9786 67.6028C79.1749 66.0021 75.3321 64.3229 75.3321 60.0677C75.3321 59.2854 75.4883 58.5849 75.7584 57.9204C75.3321 58.7387 75.0979 59.7175 75.0979 60.7714C75.0979 64.9121 78.5534 66.5913 82.279 68.1527C86.1217 69.7533 90.3517 71.3932 90.3517 75.8056C90.3517 76.5486 90.2378 77.2491 90.0035 77.9135C90.3907 77.1312 90.625 76.1951 90.625 75.1018M91.4775 74.4373C91.4775 69.7926 87.83 68.1527 83.9091 66.552C80.0664 64.9907 76.1456 63.4261 76.1456 59.3672C76.1456 58.8206 76.2237 58.3132 76.3408 57.8451C76.0317 58.5096 75.8755 59.2527 75.8755 60.071C75.8755 63.9367 79.4059 65.4588 83.2096 67.0594C87.0523 68.6993 91.1684 70.3785 91.1684 75.1018C91.1684 76.1951 90.895 77.2098 90.4298 78.0707C91.1293 77.0167 91.4775 75.8056 91.4775 74.4373Z" fill="#B91C47"/>
<path d="M22.4901 50.1301C18.2114 50.1301 14.3166 47.7897 12.117 44.7423C8.60941 39.8815 8.77209 33.1484 12.5042 28.736C16.0671 24.5168 20.4207 22.9947 25.4413 24.2156C27.1528 24.6313 28.8122 25.43 30.0682 26.0748C35.2352 28.7458 39.8979 32.2057 43.7764 35.2367L44.3947 35.7146C45.2894 35.0698 46.1745 34.4184 47.0498 33.767C49.1127 32.2417 51.2471 30.6672 53.437 29.2794C56.04 27.6296 58.9456 26.0781 62.066 24.6641C66.335 22.7328 71.72 23.9243 75.4651 27.6264C79.2363 31.3513 80.3979 37.1352 78.361 42.0156C76.2363 47.1121 71.3231 50.3396 66.091 50.0646C64.4055 49.973 62.5085 49.4525 60.2927 48.4705C55.2168 46.2218 50.7168 42.9387 46.1745 39.492C45.797 39.2039 45.4229 38.9126 45.0194 38.6016L44.4793 38.1827L44.3393 38.2874C44.1116 38.4543 43.8838 38.6245 43.656 38.8013C39.8068 41.7931 35.1734 45.2071 29.9999 47.865C29.2645 48.2414 28.4999 48.5753 27.758 48.8993L27.2634 49.1154C25.6658 49.8191 24.0519 50.1301 22.4901 50.1301ZM22.2005 24.2745C18.6669 24.2745 15.5302 25.8686 12.8556 29.0371C9.26342 33.2891 9.10724 39.78 12.4912 44.4706C15.3838 48.4803 21.3252 51.2168 27.078 48.6898L27.5758 48.4705C28.3111 48.1497 29.0693 47.8191 29.7916 47.4493C34.9294 44.811 39.5432 41.4134 43.3762 38.4347C43.604 38.2579 43.8383 38.0845 44.066 37.9142L44.4858 37.6L45.3025 38.2318C45.7027 38.5427 46.0769 38.834 46.4511 39.1188C50.9706 42.5492 55.4445 45.8159 60.4782 48.045C62.6387 49.0041 64.4836 49.5114 66.1137 49.5998C71.1083 49.878 75.8816 46.7521 77.9315 41.8389C79.8968 37.1319 78.7743 31.5543 75.1398 27.9602C71.5834 24.448 66.2862 23.2664 62.2547 25.0896C59.1506 26.4938 56.2645 28.0355 53.681 29.6722C51.5042 31.0502 49.4738 32.5494 47.3231 34.1402C46.3957 34.8243 45.4684 35.5117 44.5216 36.1892L44.3816 36.2907L43.4901 35.6033C39.6278 32.5821 34.9879 29.1386 29.8534 26.4873C28.6203 25.8523 26.9934 25.0699 25.3307 24.6641C24.2569 24.4022 23.2124 24.2745 22.2005 24.2745Z" fill="#B91C47"/>
<path d="M44.5052 28.4283C44.1375 28.4283 43.7796 28.2352 43.3729 27.8162C41.8241 26.2254 40.2232 24.6313 38.6776 23.0863C36.2275 20.6412 33.6928 18.111 31.2915 15.5349C28.1744 12.1864 28.2037 6.75275 31.3566 3.16198C33.7416 0.448439 38.6061 -0.945973 43.6592 2.40913C43.8544 2.54006 44.0464 2.67753 44.2644 2.83465L44.4759 2.98849C46.7275 1.20456 49.4184 -0.494262 52.3631 0.130932C55.9358 0.883783 58.3924 3.11288 59.4727 6.57599C60.5659 10.0849 59.7915 13.3582 57.2373 16.0488C55.6657 17.7051 54.0193 19.3417 52.4314 20.9227C51.6082 21.741 50.785 22.5626 49.9683 23.3842C48.5139 24.8506 47.0692 26.3302 45.6277 27.8129C45.2145 28.2385 44.8696 28.425 44.5019 28.425M37.6202 0.909969C35.131 0.909969 33.016 1.97705 31.7015 3.46966C28.7048 6.88041 28.6722 12.0391 31.6267 15.2174C34.0215 17.7902 36.5529 20.3139 39.003 22.759C40.5518 24.304 42.1494 25.8981 43.7015 27.4922C44.3165 28.1239 44.6679 28.1435 45.2991 27.4922C46.7405 26.0094 48.1852 24.5299 49.6429 23.0602C50.4596 22.2353 51.2828 21.4137 52.1093 20.5954C53.6972 19.0144 55.3403 17.381 56.9054 15.7313C59.3685 13.1356 60.0844 10.1046 59.0334 6.72002C57.9922 3.37801 55.7178 1.31585 52.272 0.589189C49.4445 -0.00654519 46.8251 1.71192 44.6288 3.46639L44.4922 3.57441L43.9943 3.21435C43.7828 3.06051 43.5974 2.92303 43.4054 2.79864C41.3913 1.45988 39.4097 0.909969 37.6234 0.909969" fill="#B91C47"/>
<path d="M44.5024 28.1173C44.1542 28.1173 43.8126 27.9308 43.4286 27.5282C41.9839 26.0094 40.4904 24.4873 39.049 23.0143C36.7518 20.6707 34.3765 18.2452 32.1282 15.7771C29.2095 12.5693 29.2355 7.36484 32.19 3.92791C35.0045 0.654646 39.8527 0.189843 43.7247 2.81827C43.9102 2.94266 44.0859 3.07686 44.2909 3.22743L44.4796 3.36818C47.0826 1.27984 49.5002 0.517169 51.8624 1.02453C55.2106 1.74464 57.5143 3.88209 58.523 7.20118C59.5414 10.5595 58.8223 13.6953 56.4308 16.2714C54.9568 17.8589 53.4145 19.4268 51.9243 20.9456C51.1564 21.7247 50.3885 22.507 49.6303 23.2926C48.2703 24.6968 46.9167 26.1108 45.5696 27.5314C45.1824 27.9406 44.8538 28.1206 44.5056 28.1206M38.3852 1.58753C36.1596 1.58753 34.0414 2.4844 32.5414 4.23233C29.7399 7.4925 29.7073 12.4253 32.4698 15.4629C34.7149 17.9277 37.087 20.3499 39.3809 22.6903C40.8256 24.1632 42.3191 25.6853 43.767 27.2074C44.0533 27.5085 44.2941 27.6558 44.5056 27.6558C44.7171 27.6558 44.9449 27.5151 45.2345 27.2107C46.5848 25.7901 47.9351 24.376 49.2984 22.9685C50.0598 22.1829 50.8277 21.4006 51.5956 20.6183C53.0859 19.1028 54.6249 17.5382 56.0956 15.9539C58.3993 13.4728 59.0663 10.5726 58.0837 7.33866C57.1141 4.14395 54.9893 2.17344 51.7681 1.47951C49.5067 0.991793 47.1737 1.76428 44.6325 3.84281L44.4958 3.95737L44.0175 3.60713C43.8191 3.45984 43.6466 3.3289 43.4676 3.21107C41.87 2.12434 40.1 1.59407 38.3885 1.59407" fill="#B91C47"/>
<path d="M44.502 28.2155C44.1701 28.2155 43.8479 28.0322 43.4868 27.6329C42.1364 26.1468 40.7406 24.6542 39.3935 23.214C37.2558 20.9293 35.0464 18.566 32.9542 16.1601C30.2341 13.0276 30.2601 7.94749 33.0095 4.59239C35.7362 1.27003 40.3664 0.595732 43.7861 3.02777C43.9553 3.14888 44.118 3.27654 44.3035 3.42056L44.4759 3.55476C46.5909 1.80357 48.9043 1.19474 51.3642 1.7512C54.4911 2.45822 56.6419 4.54656 57.5822 7.79037C58.5323 11.0702 57.8588 14.1307 55.6299 16.6446C54.2568 18.1928 52.8187 19.728 51.4293 21.2075C50.7134 21.9702 50.0009 22.7328 49.2915 23.4988C48.0226 24.8703 46.7633 26.2516 45.5074 27.6362C45.143 28.0388 44.8306 28.2188 44.502 28.2188M39.2601 2.03597C37.0703 2.03597 34.9 3.01468 33.3642 4.88698C30.7514 8.0686 30.7221 12.8868 33.2991 15.8524C35.3848 18.255 37.5941 20.615 39.7286 22.8965C41.079 24.34 42.4748 25.8326 43.8284 27.3219C44.3523 27.898 44.6289 27.9144 45.169 27.3219C46.4249 25.9374 47.6874 24.5528 48.9564 23.1813C49.6657 22.4121 50.3816 21.6494 51.0974 20.8867C52.4835 19.4072 53.9184 17.8786 55.2883 16.3336C57.4358 13.9114 58.0605 11.08 57.143 7.91803C56.2384 4.80188 54.2633 2.88047 51.2666 2.20291C48.9011 1.67264 46.6722 2.28474 44.6354 4.02939L44.4922 4.1505L44.0236 3.79044C43.8414 3.64969 43.6852 3.52531 43.5226 3.41074C42.2243 2.48768 40.7406 2.03924 39.2633 2.03924" fill="#B91C47"/>
<path d="M23.219 49.8093C19.0801 49.8093 15.3057 47.5278 13.181 44.5491C9.79056 39.8062 9.94674 33.2367 13.5552 28.9291C17.0042 24.8114 21.2146 23.3286 26.0726 24.5168C27.7255 24.9194 29.3329 25.6984 30.5465 26.3301C35.5509 28.9389 40.0541 32.3137 43.8025 35.2694L44.3947 35.731C45.2569 35.1025 46.1062 34.4708 46.9522 33.839C48.95 32.3497 51.0129 30.8112 53.1311 29.4594C55.6463 27.8522 58.4543 26.34 61.4771 24.9586C65.6062 23.0732 70.8187 24.232 74.4435 27.8489C78.1463 31.5412 79.2461 37.0501 77.245 41.8913C75.1886 46.8633 70.4088 50.0319 65.3719 49.7438C63.7417 49.6554 61.9066 49.1481 59.7624 48.189C54.8556 45.9959 50.5053 42.7947 46.1094 39.4265C45.7092 39.1188 45.3122 38.8078 44.8795 38.4707L44.476 38.1532L44.3426 38.2547C44.1246 38.415 43.9066 38.582 43.6886 38.7522C39.963 41.6687 35.4825 45.0009 30.4814 47.5933C29.7754 47.9566 29.0368 48.2839 28.3209 48.5982L27.8329 48.8142C26.284 49.4983 24.7255 49.8027 23.2157 49.8027M22.9326 24.5822C19.5162 24.5822 16.4901 26.1338 13.9034 29.2237C10.4316 33.3709 10.2819 39.7014 13.5519 44.2742C16.347 48.1825 22.0834 50.8535 27.6441 48.3887L28.1322 48.1727C28.8383 47.8617 29.5704 47.5376 30.2634 47.1809C35.232 44.6081 39.6897 41.2922 43.399 38.3856C43.617 38.2121 43.8415 38.0452 44.0595 37.8815L44.476 37.5673L45.1593 38.1008C45.5888 38.438 45.9858 38.7489 46.3827 39.0533C50.7526 42.4019 55.0801 45.5868 59.9446 47.7602C62.0335 48.6931 63.8166 49.1874 65.3914 49.2757C70.2233 49.5409 74.8307 46.5 76.8122 41.708C78.7092 37.1156 77.6257 31.6787 74.1116 28.1763C70.6203 24.6968 65.6192 23.5741 61.6626 25.3809C58.6593 26.7524 55.8708 28.2581 53.3719 29.8522C51.2667 31.1975 49.3014 32.6606 47.219 34.2122C46.3274 34.8799 45.4294 35.5477 44.5151 36.2089L44.3752 36.3103L43.5064 35.636C39.7743 32.6901 35.2906 29.3317 30.322 26.7426C29.1311 26.1207 27.5563 25.358 25.9489 24.9652C24.9109 24.7099 23.899 24.5855 22.9229 24.5855" fill="#B91C47"/>
<path d="M24.0133 49.4787C20.0241 49.4787 16.3929 47.2561 14.343 44.356C11.0762 39.7342 11.2291 33.3349 14.7042 29.1419C18.0263 25.1289 22.0838 23.6854 26.7627 24.8441C28.3603 25.2402 29.9059 25.9963 31.074 26.6149C35.8864 29.1484 40.2269 32.4381 43.8354 35.3185L44.3983 35.7637C45.2215 35.1582 46.0317 34.546 46.8386 33.9372C48.7649 32.4839 50.7595 30.9815 52.8029 29.6591C55.2237 28.0944 57.9276 26.6182 60.8397 25.2762C64.8191 23.4399 69.8365 24.5691 73.331 28.0912C76.8972 31.6885 77.9579 37.0566 76.0285 41.7669C74.0501 46.6113 69.4818 49.6915 64.5914 49.4198C63.0198 49.3347 61.253 48.8371 59.1868 47.9075C54.4623 45.7734 50.2747 42.6539 46.0447 39.3774C45.6738 39.0893 45.3029 38.798 44.9059 38.4838L44.4796 38.1434L44.3462 38.2448C44.1412 38.402 43.933 38.5591 43.7248 38.7227C40.1391 41.5639 35.8245 44.8077 31.0089 47.3314C30.3191 47.6915 29.6 48.0123 28.907 48.3232L28.4612 48.5229C26.971 49.1906 25.4677 49.4885 24.0133 49.4885M23.7432 24.9325C20.4569 24.9325 17.5447 26.4447 15.0588 29.4496C11.7172 33.4855 11.574 39.6458 14.7204 44.0974C17.4081 47.901 22.9265 50.4967 28.2757 48.1006L28.7215 47.901C29.4113 47.5966 30.1239 47.2791 30.7974 46.9255C35.5805 44.4215 39.8723 41.1908 43.4384 38.3627C43.6467 38.199 43.8582 38.0386 44.0664 37.8782L44.4829 37.5607L45.189 38.1205C45.5859 38.4347 45.9504 38.726 46.3213 39.0141C50.5317 42.2742 54.6933 45.3773 59.3723 47.4885C61.3864 48.3985 63.1011 48.8797 64.6141 48.9615C69.2768 49.2136 73.6922 46.2578 75.5989 41.5967C77.4243 37.1287 76.3799 31.8358 72.9992 28.425C69.6445 25.0405 64.8321 23.9472 61.0284 25.705C58.1391 27.0404 55.4547 28.5036 53.0501 30.0551C51.0198 31.3677 49.1228 32.7981 47.112 34.3136C46.2562 34.9585 45.3972 35.6066 44.5252 36.2481L44.382 36.3529L43.5426 35.6884C39.9471 32.821 35.6293 29.5478 30.8527 27.0306C29.7074 26.4251 28.1944 25.6853 26.6456 25.3023C25.6467 25.0536 24.677 24.9325 23.7367 24.9325" fill="#B91C47"/>
<path d="M4.60087 92.4894C5.12473 92.6662 5.38503 93.0557 5.38503 93.6547C5.38503 94.4632 4.80911 94.8658 3.65076 94.8658H0V90.257H3.70282C4.16486 90.257 4.53254 90.3716 4.79609 90.6007C5.06291 90.8299 5.19631 91.1343 5.19631 91.5172C5.19631 91.9362 4.99783 92.2603 4.60087 92.4927M3.71583 92.1883C3.92733 92.1883 4.10304 92.1261 4.2462 92.0082C4.38612 91.8871 4.4577 91.7398 4.4577 91.5631C4.4577 91.3732 4.39262 91.2259 4.26573 91.1146C4.13883 91.0033 3.96638 90.9477 3.74512 90.9477H0.758134V92.1883H3.71258H3.71583ZM3.66052 94.1817C4.29501 94.1817 4.61063 93.9722 4.61063 93.5499C4.61063 93.1015 4.33406 92.8756 3.78091 92.8756H0.758134V94.1817H3.65727H3.66052Z" fill="#B91C47"/>
<path d="M12.4881 90.257L9.97938 93.0426V94.8658H9.22124V93.0426L6.71582 90.257H7.66267L9.60519 92.4076L11.5412 90.257H12.4881Z" fill="#B91C47"/>
<path d="M21.9045 94.8658H20.9609L17.463 91.0852V94.8658H16.7017V90.257H17.6453L21.1431 94.0377V90.257H21.9045V94.8658Z" fill="#B91C47"/>
<path d="M29.8407 92.5549C29.8407 93.311 29.5348 93.9231 28.9166 94.3879C28.3765 94.797 27.7062 95 26.9025 95C26.0988 95 25.4155 94.7938 24.8787 94.3813C24.2604 93.9133 23.9546 93.3044 23.9546 92.5549C23.9546 91.8053 24.267 91.2096 24.8917 90.7349C25.4383 90.3192 26.1119 90.113 26.9058 90.113C27.6997 90.113 28.3732 90.3192 28.9134 90.7349C29.5348 91.2096 29.844 91.8184 29.844 92.5549M29.0533 92.5549C29.0533 92.0148 28.8255 91.5794 28.37 91.2423C27.9763 90.9542 27.4915 90.8102 26.909 90.8102C26.2713 90.8102 25.7539 90.9739 25.3505 91.3045C24.9503 91.6318 24.7485 92.0508 24.7485 92.5549C24.7485 93.059 24.9437 93.4976 25.3375 93.8183C25.7312 94.1391 26.255 94.2995 26.909 94.2995C27.563 94.2995 28.0804 94.1391 28.4676 93.8151C28.8581 93.4943 29.0533 93.072 29.0533 92.5549Z" fill="#B91C47"/>
<path d="M36.6897 94.8658H31.8936V90.257H36.5139V90.9444H32.6517V92.1293H35.3361V92.8167H32.6517V94.1784H36.6897V94.8658Z" fill="#B91C47"/>
<path d="M42.8915 94.8658H38.5933V90.257H39.3546V94.1784H42.8915V94.8658Z" fill="#B91C47"/>
<path d="M45.3026 90.257H44.5444V94.8658H45.3026V90.257Z" fill="#B91C47"/>
<path d="M52.7278 94.8658H51.8981L51.3677 93.8347H48.2831L47.756 94.8658H46.9263L49.3503 90.257H50.307L52.731 94.8658H52.7278ZM51 93.1473L49.8319 90.915L48.6508 93.1473H51Z" fill="#B91C47"/>
<path d="M60.6408 90.2538C61.1061 90.2538 61.4771 90.3847 61.7536 90.6465C62.027 90.9084 62.1636 91.2554 62.1636 91.694C62.1636 92.1522 62.0237 92.5025 61.7374 92.7447C61.451 92.9869 61.0378 93.108 60.4944 93.108H57.7645V94.8658H57.0063V90.257H60.6408V90.2538ZM60.5074 92.4174C61.0931 92.4174 61.386 92.1817 61.386 91.7038C61.386 91.1932 61.0768 90.9379 60.4554 90.9379H57.7645V92.4141H60.5042L60.5074 92.4174Z" fill="#B91C47"/>
<path d="M64.5555 90.257H63.7974V94.8658H64.5555V90.257Z" fill="#B91C47"/>
<path d="M72.1952 91.3078L71.5054 91.5565C71.0433 91.059 70.3926 90.8102 69.5563 90.8102C68.9251 90.8102 68.4078 90.9739 68.0108 91.3012C67.6106 91.6285 67.4121 92.0442 67.4121 92.5483C67.4121 93.0524 67.6073 93.491 68.0043 93.8118C68.398 94.1326 68.9316 94.293 69.6019 94.293C70.4121 94.293 71.0498 94.0409 71.5119 93.5336L72.1659 93.8969C71.8372 94.2831 71.4631 94.5647 71.0466 94.7349C70.6333 94.9084 70.1355 94.9934 69.5563 94.9934C68.7461 94.9934 68.0726 94.7905 67.539 94.3813C66.9273 93.9133 66.6182 93.3044 66.6182 92.5483C66.6182 91.7922 66.9305 91.1997 67.552 90.7284C68.0921 90.316 68.7592 90.1097 69.5563 90.1097C70.7049 90.1097 71.5835 90.5091 72.1952 91.3078Z" fill="#B91C47"/>
<path d="M79.3601 94.8658H78.5304L78.0033 93.8347H74.9154L74.3883 94.8658H73.5586L75.9827 90.257H76.936L79.3601 94.8658ZM77.6323 93.1473L76.4675 90.915L75.2831 93.1473H77.6323Z" fill="#B91C47"/>
<path d="M85.5128 94.8658H80.5312V94.1784L84.3187 90.951H80.5898V90.257H85.3436V90.951L81.566 94.1719L85.5128 94.1784V94.8658Z" fill="#B91C47"/>
<path d="M92.9999 92.5549C92.9999 93.311 92.694 93.9231 92.0758 94.3879C91.5357 94.797 90.8654 95 90.065 95C89.2645 95 88.578 94.7938 88.0378 94.3813C87.4229 93.9133 87.1138 93.3044 87.1138 92.5549C87.1138 91.8053 87.4261 91.2096 88.0509 90.7349C88.5975 90.3192 89.271 90.113 90.065 90.113C90.8589 90.113 91.5292 90.3192 92.0693 90.7349C92.6908 91.2096 92.9999 91.8184 92.9999 92.5549ZM92.2092 92.5549C92.2092 92.0148 91.9814 91.5794 91.5259 91.2423C91.1322 90.9542 90.6441 90.8102 90.065 90.8102C89.4272 90.8102 88.9066 90.9739 88.5064 91.3045C88.1062 91.6318 87.9044 92.0508 87.9044 92.5549C87.9044 93.059 88.1029 93.4976 88.4934 93.8183C88.8871 94.1391 89.4109 94.2995 90.065 94.2995C90.719 94.2995 91.2331 94.1391 91.6235 93.8151C92.014 93.4943 92.2092 93.072 92.2092 92.5549Z" fill="#B91C47"/>
</svg>
