<svg width="130" height="65" viewBox="0 0 130 65" fill="none" xmlns="http://www.w3.org/2000/svg">
	<mask id="mask0_191_728" style="mask-type:luminance" maskUnits="userSpaceOnUse" x="0" y="0" width="130" height="65">
		<path d="M130 0H0V65H130V0Z" fill="white" />
	</mask>
	<g mask="url(#mask0_191_728)">
		<path d="M0.314797 29.0191H0.709219V41.8348H0.314797V29.0191ZM1.02587 29.0191H1.42029V41.8348H1.02587V29.0191ZM0 28.7525V42.1015H8.93838V41.8348H1.73694V28.7525H0Z" fill="#BF0442" />
		<path d="M15.8253 28.4286H15.9827L22.3175 42.1033H20.5028L19.0029 38.7083H11.5441L10.0442 42.1033H9.70898L15.8253 28.4286ZM18.8844 38.4416L15.2735 30.2987L11.6626 38.4416H18.8844ZM21.1139 41.8366L15.5698 29.6115L15.4124 29.973L20.7213 41.8348H21.1157L21.1139 41.8366ZM21.8638 41.8366L15.9049 28.8867L15.7475 29.2482L21.4509 41.8348H21.8657L21.8638 41.8366Z" fill="#BF0442" />
		<path d="M28.75 28.5431H29.0055L35.1811 37.0672L39.9771 28.7328H41.2993V42.1015H39.5827V30.1251L34.6497 38.6296H34.4923L29.0666 31.249V42.0997H28.75V28.5395V28.5431ZM35.0256 37.3732L29.0666 29.1158V29.6688L34.8682 37.6399L35.0256 37.3732ZM34.7108 37.9262L29.0666 30.2021V30.7175L34.5515 38.1929L34.7089 37.9262H34.7108ZM40.2753 41.8366V29.0012H40.2364L39.9012 29.5739V41.8366H40.2771H40.2753ZM40.9863 29.0012H40.5919V41.8366H40.9863V29.0012Z" fill="#BF0442" />
		<path d="M49.0157 28.4286H49.1731L55.508 42.1033H53.6932L52.1933 38.7083H44.7345L43.2346 42.1033H42.8994L49.0157 28.4286ZM52.073 38.4416L48.4621 30.2987L44.8512 38.4416H52.073ZM54.3025 41.8366L48.7583 29.6115L48.6009 29.973L53.908 41.8348H54.3025V41.8366ZM55.0524 41.8366L49.0935 28.8867L48.9361 29.2482L54.6395 41.8348H55.0543L55.0524 41.8366Z" fill="#BF0442" />
		<path d="M57.2061 28.7525H60.4818C63.6983 28.7525 65.7296 30.9645 65.7296 33.2159C65.7296 35.0467 64.3871 36.8399 62.1187 37.4305L66.3222 42.1033H65.9667L61.7836 37.5074C61.3892 37.6023 60.9355 37.6417 60.4818 37.6417H58.943V42.105H57.2061V28.7543V28.7525ZM57.9356 29.0191H57.5209V41.8348H57.9356V29.0191ZM58.6263 29.0191H58.2116V41.8348H58.6263V29.0191ZM60.4818 37.3714C63.2835 37.3714 65.4149 35.5406 65.4149 33.2141C65.4149 30.8875 63.2835 29.0174 60.4818 29.0174H58.943V37.3696H60.4818V37.3714Z" fill="#BF0442" />
		<path d="M67.3867 35.3903C67.3867 31.3672 70.4847 28.4679 74.4122 28.4679C78.3398 28.4679 81.3581 31.3672 81.3581 35.3903C81.3581 39.4134 78.3583 42.3323 74.4122 42.3323C70.4662 42.3323 67.3867 39.4134 67.3867 35.3903ZM68.0978 35.3903C68.0978 32.8919 69.1644 30.8517 70.8606 29.6885C68.9274 30.832 67.7034 32.9116 67.7034 35.3903C67.7034 37.8689 68.907 39.9288 70.8013 41.0742C69.144 39.9109 68.0978 37.8904 68.0978 35.3903ZM68.8089 35.3903C68.8089 32.9868 69.6181 31.0414 70.9587 29.8209C69.3996 31.0039 68.4126 33.0244 68.4126 35.3903C68.4126 37.7562 69.3607 39.7194 70.8995 40.9024C69.5977 39.6819 68.8089 37.7365 68.8089 35.3903ZM81.0415 35.3903C81.0415 31.5372 78.0824 28.7346 74.5308 28.7346C71.2939 28.7346 69.1237 31.4996 69.1237 35.3903C69.1237 39.281 71.2939 42.046 74.5308 42.046C78.0824 42.046 81.0415 39.2613 81.0415 35.3903ZM72.7734 43.1896V42.9229C76.3862 42.9229 76.8991 44.4101 79.4638 44.4101C80.5489 44.4101 81.16 44.0862 81.497 43.8571V44.181C81.1007 44.4101 80.4712 44.6964 79.4638 44.6964C76.7399 44.6964 76.1881 43.1896 72.7734 43.1896Z" fill="#BF0442" />
		<path d="M83.6855 37.1066V28.7525H85.4225V37.6596C85.4225 40.4443 86.6669 42.0657 89.1519 42.0657C91.6369 42.0657 93.9276 40.3691 93.9276 37.1066V28.7525H94.2442V37.1066C94.2442 40.4067 92.0721 42.3502 89.0149 42.3502C85.9576 42.3502 83.6855 40.4049 83.6855 37.1066ZM84.3966 37.3732V29.0191H84.0022V37.1048C84.0022 38.7262 84.5744 40.0219 85.5614 40.9006C84.8114 40.0416 84.3966 38.8604 84.3966 37.3714M85.1077 37.6578V29.0191H84.7133V37.3732C84.7133 38.9553 85.1855 40.1955 86.0539 40.9973C85.4429 40.2152 85.1077 39.0895 85.1077 37.6596" fill="#BF0442" />
		<path d="M97.0645 28.7525H105.649V29.0191H98.8014V35.5406H104.721V35.8073H98.8014V41.833H105.847V42.0997H97.0645V28.7507V28.7525ZM97.7755 29.0191H97.3811V41.8348H97.7755V29.0191ZM98.4866 29.0191H98.0922V41.8348H98.4866V29.0191Z" fill="#BF0442" />
		<path d="M106.872 39.6998L107.129 39.5476C108.078 41.3784 110.227 42.0657 111.807 42.0657C113.64 42.0657 115.596 41.246 115.596 39.2237C115.596 37.2014 113.622 36.516 111.688 35.7339C109.774 34.9321 107.841 34.0552 107.841 31.8808C107.841 30.0697 109.261 28.4679 112.042 28.4679C113.503 28.4679 115.199 28.944 116.147 30.4509L115.89 30.603C114.964 29.1158 113.305 28.7346 112.101 28.7346C109.97 28.7346 109.003 29.88 109.003 31.1953C109.003 33.0065 110.8 33.6937 112.753 34.4561C114.707 35.2561 116.799 36.1151 116.799 38.5562C116.799 41.246 114.233 42.3126 111.944 42.3126C109.99 42.3126 107.859 41.5306 106.872 39.6998ZM116.047 38.8801C116.047 36.7629 114.114 36.0184 112.161 35.2185C110.227 34.4364 108.274 33.6167 108.274 31.5372C108.274 31.156 108.353 30.8124 108.49 30.4884C108.274 30.8893 108.155 31.3654 108.155 31.8808C108.155 33.9031 109.911 34.7227 111.807 35.4851C113.761 36.2672 115.91 37.069 115.91 39.2237C115.91 39.587 115.851 39.9288 115.733 40.2545C115.931 39.8733 116.047 39.4152 116.047 38.8819M116.483 38.558C116.483 36.2887 114.627 35.4869 112.635 34.7066C110.681 33.9442 108.689 33.1801 108.689 31.1971C108.689 30.9305 108.728 30.6817 108.787 30.4526C108.629 30.7766 108.55 31.1399 108.55 31.5408C108.55 33.4288 110.346 34.1733 112.279 34.9554C114.233 35.7554 116.325 36.5768 116.325 38.8837C116.325 39.417 116.186 39.9127 115.949 40.3333C116.305 39.8179 116.483 39.2273 116.483 38.5597" fill="#BF0442" />
		<path d="M123.508 28.4286H123.665L130 42.1033H128.184L126.686 38.7083H119.225L117.727 42.1033H117.392L123.508 28.4286ZM126.567 38.4416L122.956 30.2987L119.345 38.4416H126.567ZM128.797 41.8366L123.251 29.6115L123.093 29.973L128.4 41.8348H128.797V41.8366ZM129.546 41.8366L123.586 28.8867L123.428 29.2482L129.132 41.8348H129.546V41.8366Z" fill="#BF0442" />
		<path d="M36.7129 57.2025L36.9703 57.0504C37.9184 58.8812 40.0683 59.5684 41.6478 59.5684C43.4829 59.5684 45.4365 58.7488 45.4365 56.7265C45.4365 54.7042 43.4625 54.0187 41.5293 53.2366C39.6146 52.4349 37.6814 51.558 37.6814 49.3835C37.6814 47.5724 39.1016 45.9689 41.8848 45.9689C43.3458 45.9689 45.042 46.4467 45.9883 47.9518L45.7327 48.1039C44.805 46.6167 43.1477 46.2355 41.9441 46.2355C39.8127 46.2355 38.8461 47.3791 38.8461 48.6963C38.8461 50.5074 40.6423 51.1947 42.5959 51.9571C44.5495 52.757 46.6401 53.6161 46.6401 56.0571C46.6401 58.747 44.0754 59.8136 41.7867 59.8136C39.8331 59.8136 37.7017 59.0315 36.7147 57.2007M45.8901 56.3811C45.8901 54.2639 43.9569 53.5212 42.0033 52.7194C40.0701 51.9374 38.1165 51.1177 38.1165 49.0381C38.1165 48.6569 38.1961 48.3133 38.3332 47.9894C38.1165 48.3903 37.998 48.8663 37.998 49.3817C37.998 51.404 39.7535 52.2237 41.6496 52.9861C43.6032 53.7682 45.7531 54.5681 45.7531 56.7247C45.7531 57.0862 45.6939 57.4298 45.5753 57.7537C45.7735 57.3725 45.8901 56.9144 45.8901 56.3811ZM46.3253 56.0571C46.3253 53.7879 44.4699 52.9879 42.4774 52.2058C40.5238 51.4434 38.5313 50.6792 38.5313 48.6963C38.5313 48.4297 38.5702 48.1809 38.6294 47.9518C38.4721 48.2757 38.3924 48.639 38.3924 49.0381C38.3924 50.9262 40.1886 51.6707 42.1218 52.4528C44.0754 53.2528 46.1679 54.0742 46.1679 56.3811C46.1679 56.9144 46.029 57.4101 45.7939 57.8307C46.1494 57.3153 46.3272 56.7247 46.3272 56.0571" fill="#BF0442" />
		<path d="M51.7489 46.5237H47.2695V46.257H57.9652V46.5237H53.4858V59.606H51.7489V46.5237ZM52.46 46.5237H52.0656V59.3393H52.46V46.5237ZM53.171 46.5237H52.7766V59.3393H53.171V46.5237Z" fill="#BF0442" />
		<path d="M64.1225 54.4948L59.0117 46.257H60.9449L65.5817 53.9418L70.1407 46.257H70.4759L65.8595 54.1136V59.606H64.1225V54.4948ZM64.8336 59.3393V54.4751L59.9598 46.5237H59.545L64.4392 54.4196V59.3393H64.8336ZM65.5447 59.3393V54.4375L60.7487 46.5237H60.3153L65.1503 54.3999V59.3393H65.5447Z" fill="#BF0442" />
		<path d="M72.1719 46.257H73.9088V59.3393H81.1103V59.606H72.1719V46.257ZM72.8811 46.5237H72.4867V59.3393H72.8811V46.5237ZM73.5922 46.5237H73.1977V59.3393H73.5922V46.5237Z" fill="#BF0442" />
		<path d="M83.125 46.257H91.7078V46.5237H84.8601V53.0452H90.7801V53.3118H84.8601V59.3376H91.906V59.6042H83.125V46.2552V46.257ZM83.8342 46.5237H83.4398V59.3393H83.8342V46.5237ZM84.5453 46.5237H84.1509V59.3393H84.5453V46.5237Z" fill="#BF0442" />
		<path d="M53.823 24.4842C51.6491 24.4842 49.6677 23.3424 48.5493 21.8534C46.766 19.4785 46.8494 16.1909 48.7455 14.0344C50.5584 11.9745 52.7712 11.23 55.3229 11.826C56.1933 12.03 57.0377 12.4184 57.6747 12.7351C60.3041 14.0398 62.6725 15.7292 64.6428 17.211L64.9576 17.4437C65.4131 17.1287 65.8612 16.8102 66.3075 16.4934C67.3556 15.7489 68.4407 14.9793 69.5536 14.3011C70.8776 13.4957 72.3535 12.7369 73.9423 12.0479C76.1125 11.1048 78.8494 11.6864 80.753 13.4939C82.6714 15.314 83.2621 18.1381 82.227 20.5219C81.1455 23.0095 78.642 24.5915 75.9884 24.452C75.1311 24.4072 74.1663 24.1531 73.0405 23.6735C70.4573 22.5746 68.1722 20.9711 65.8631 19.287C65.6668 19.1439 65.4742 18.9989 65.265 18.845L65.002 18.6481L64.9317 18.6982C64.8168 18.7806 64.7002 18.8629 64.5854 18.9488C62.6281 20.4091 60.2727 22.0771 57.6413 23.3746C57.2654 23.5607 56.8729 23.7236 56.4932 23.8828L56.2488 23.9849C55.4359 24.3285 54.6156 24.4806 53.8212 24.4806M53.6749 11.8528C51.8768 11.8528 50.2843 12.6313 48.9233 14.1776C47.0956 16.2536 47.0179 19.4248 48.7381 21.7156C50.2103 23.6752 53.2286 25.0121 56.1544 23.7755L56.3988 23.6735C56.7766 23.516 57.1654 23.3531 57.5339 23.1706C60.1467 21.882 62.4911 20.2212 64.4409 18.768C64.5576 18.6803 64.6761 18.5962 64.7909 18.5139L65.0039 18.36L65.4076 18.6624C65.615 18.8164 65.8075 18.9613 66.002 19.1027C68.3 20.7796 70.5739 22.3742 73.133 23.4623C74.233 23.9312 75.17 24.1781 75.9995 24.2211C76.1014 24.2265 76.2051 24.23 76.3069 24.23C78.7438 24.23 81.0067 22.7339 82.0085 20.4306C83.0066 18.1309 82.4362 15.4071 80.5882 13.6514C78.779 11.9352 76.0866 11.3589 74.0367 12.2501C72.459 12.9356 70.9924 13.689 69.6777 14.489C68.5722 15.1619 67.5389 15.8956 66.4445 16.6724C65.9742 17.0052 65.502 17.3417 65.0205 17.6728L64.9502 17.7211L64.4965 17.3846C62.5355 15.91 60.1764 14.2277 57.5636 12.932C56.9377 12.6224 56.1099 12.2394 55.2637 12.0425C54.7174 11.9155 54.186 11.851 53.673 11.851" fill="#BF0442" />
		<path d="M65.0164 13.8841C64.8294 13.8841 64.6461 13.7893 64.4406 13.5852C63.6536 12.8085 62.8388 12.0282 62.0536 11.2748C60.8074 10.0811 59.5186 8.84446 58.2983 7.58633C56.7132 5.9506 56.728 3.29655 58.3316 1.54448C59.5445 0.218356 62.0185 -0.46171 64.5868 1.17582C64.6868 1.23846 64.7831 1.30646 64.8942 1.38521L65.0016 1.46037C66.146 0.588813 67.5107 -0.241583 69.0125 0.0644464C70.8291 0.431324 72.079 1.52122 72.6271 3.21244C73.1808 4.92692 72.7882 6.52507 71.4902 7.83867C70.6883 8.64938 69.8514 9.45115 69.0403 10.2261C68.6236 10.6234 68.207 11.0225 67.7941 11.4233C67.0534 12.141 66.3201 12.8622 65.5868 13.587C65.3775 13.7946 65.2016 13.8859 65.0146 13.8859M61.5166 0.443852C60.25 0.443852 59.176 0.964639 58.5076 1.69482C56.9836 3.36098 56.9669 5.8808 58.4705 7.43242C59.6871 8.68876 60.9741 9.92182 62.2203 11.1155C63.0073 11.869 63.8202 12.6492 64.6091 13.4277C64.922 13.7356 65.0998 13.7445 65.422 13.4277C66.1553 12.7029 66.8904 11.9817 67.6293 11.2641C68.0422 10.8632 68.4588 10.4641 68.8755 10.0668C69.6847 9.29366 70.5217 8.4919 71.3216 7.68476C72.5753 6.41769 72.9382 4.93587 72.4031 3.28402C71.8753 1.65186 70.718 0.644292 68.9662 0.289942C67.533 1.90954e-05 66.196 0.837574 65.0813 1.69482L65.0109 1.7485L64.7572 1.57312C64.6498 1.49795 64.5554 1.43174 64.4591 1.3691C63.4351 0.715878 62.4277 0.447431 61.5185 0.447431" fill="#BF0442" />
		<path d="M65.0151 13.7338C64.8373 13.7338 64.6651 13.6425 64.4688 13.4456C63.7337 12.7029 62.9726 11.9584 62.2393 11.2372C61.0727 10.0936 59.8654 8.91065 58.7228 7.70622C57.2396 6.14028 57.2526 3.59719 58.7543 1.92029C60.1857 0.322136 62.6504 0.0948506 64.617 1.37803C64.7132 1.44067 64.8058 1.50688 64.9151 1.58384L65.0021 1.64469C66.3261 0.624586 67.5538 0.25234 68.7556 0.499311C70.4574 0.851871 71.6295 1.89524 72.1424 3.51666C72.6628 5.15597 72.2943 6.68791 71.0795 7.94603C70.3296 8.72274 69.5444 9.4905 68.7852 10.2332C68.3964 10.6126 68.0075 10.9938 67.6223 11.3768C66.9316 12.0622 66.2428 12.753 65.5576 13.4474C65.3595 13.6461 65.1928 13.7355 65.0169 13.7355L65.0151 13.7338ZM61.9041 0.774917C60.7727 0.774917 59.6969 1.21338 58.9321 2.06704C57.5081 3.65983 57.4914 6.06869 58.8969 7.55231C60.0357 8.75496 61.2412 9.93612 62.406 11.0779C63.1411 11.7991 63.9022 12.5436 64.6392 13.2881C64.7855 13.4349 64.9077 13.5065 65.0151 13.5065C65.1225 13.5065 65.2391 13.4367 65.3854 13.2881C66.0724 12.5955 66.7594 11.9029 67.452 11.2175C67.839 10.8345 68.2279 10.4533 68.6167 10.0739C69.3759 9.33301 70.1592 8.56704 70.9073 7.79212C72.0776 6.58053 72.4184 5.16492 71.9184 3.58466C71.4258 2.02409 70.3444 1.06305 68.7075 0.723017C67.5575 0.484994 66.3706 0.862609 65.0799 1.87734L65.0095 1.93282L64.7762 1.76638C64.6707 1.69122 64.5799 1.62679 64.4873 1.56594C63.6744 1.03621 62.7745 0.776706 61.9041 0.776706" fill="#BF0442" />
		<path d="M65.0151 13.7803C64.8466 13.7803 64.6818 13.6908 64.4984 13.4957C63.8114 12.7691 63.1022 12.0408 62.4171 11.3374C61.3301 10.2207 60.2061 9.06815 59.1432 7.89056C57.7599 6.36041 57.7729 3.87996 59.1728 2.24064C60.5579 0.617434 62.9115 0.288139 64.6521 1.47646C64.7373 1.53552 64.8206 1.59816 64.9151 1.66796L65.0021 1.73238C66.078 0.876932 67.2557 0.579851 68.5038 0.851877C70.0926 1.19549 71.187 2.21559 71.6647 3.80122C72.148 5.40295 71.8054 6.89731 70.6722 8.125C69.9741 8.88203 69.2445 9.6301 68.5371 10.3531C68.1742 10.7254 67.8112 11.0976 67.4501 11.4734C66.8057 12.1428 66.165 12.8175 65.5262 13.4939C65.341 13.6908 65.1836 13.7785 65.0151 13.7785V13.7803ZM62.3504 0.99326C61.2375 0.99326 60.1339 1.47289 59.3543 2.38561C58.0266 3.94081 58.0118 6.29419 59.321 7.74202C60.382 8.91603 61.5042 10.0668 62.5893 11.1817C63.2763 11.8868 63.9855 12.6152 64.6725 13.3418C64.8058 13.4832 64.9188 13.553 65.0151 13.553C65.1114 13.553 65.2169 13.4868 65.354 13.3418C65.9928 12.6653 66.6335 11.9906 67.2798 11.3195C67.6409 10.9437 68.0057 10.5715 68.3686 10.1992C69.0741 9.47619 69.8037 8.72991 70.4981 7.97467C71.5888 6.79172 71.9073 5.40832 71.4406 3.86385C70.9814 2.34265 69.9759 1.40309 68.4538 1.07379C67.2538 0.812505 66.1187 1.11317 65.0836 1.96504L65.0114 2.0241L64.7725 1.84871C64.6799 1.77891 64.6003 1.71986 64.517 1.66259C63.8577 1.2116 63.1041 0.99326 62.3523 0.99326" fill="#BF0442" />
		<path d="M54.1933 24.3285C52.0897 24.3285 50.1713 23.2135 49.0898 21.7603C47.3659 19.4445 47.4455 16.2357 49.2806 14.1311C51.0342 12.1195 53.1748 11.3947 55.6432 11.9763C56.4839 12.175 57.3005 12.5544 57.919 12.864C60.4614 14.1382 62.7539 15.7865 64.6593 17.2307L64.9612 17.4562C65.4 17.1502 65.8315 16.8406 66.2611 16.5328C67.2758 15.8062 68.3258 15.0545 69.4016 14.3923C70.6794 13.6085 72.107 12.8694 73.6458 12.1929C75.7439 11.273 78.3937 11.8385 80.2362 13.6049C82.1194 15.4089 82.6787 18.1005 81.6621 20.4628C80.6158 22.8914 78.1826 24.4394 75.6254 24.298C74.7958 24.2551 73.8625 24.0063 72.7737 23.5392C70.2775 22.4672 68.0665 20.9031 65.8333 19.2602C65.6407 19.1188 65.45 18.9756 65.2463 18.8199L65.0056 18.6374L64.9315 18.6911C64.8241 18.7698 64.713 18.8486 64.6038 18.9309C62.7113 20.3554 60.4336 21.984 57.8893 23.2493C57.5282 23.4301 57.1486 23.5893 56.782 23.7433L56.5431 23.8453C55.7561 24.1799 54.9636 24.3285 54.1951 24.3285M54.0525 12.0103C52.3156 12.0103 50.7768 12.7691 49.462 14.2778C47.6955 16.3037 47.6214 19.3944 49.2824 21.6279C50.7027 23.5374 53.6211 24.8403 56.4468 23.6377L56.6857 23.5357C57.0486 23.3817 57.4245 23.2243 57.7801 23.0471C60.3077 21.7907 62.5743 20.1693 64.4575 18.7519C64.5667 18.6696 64.6797 18.5891 64.7889 18.5103L65.0056 18.3528L65.3889 18.641C65.5926 18.7949 65.7833 18.938 65.9741 19.0794C68.1962 20.7152 70.3942 22.2704 72.8681 23.3316C73.931 23.788 74.8365 24.0296 75.6365 24.0708C78.0993 24.1978 80.4362 22.7142 81.4436 20.3751C82.4083 18.1327 81.8565 15.4769 80.0696 13.766C78.3234 12.0926 75.7217 11.5307 73.7421 12.3987C72.2126 13.0698 70.796 13.8036 69.5276 14.582C68.4573 15.2388 67.4573 15.9547 66.4 16.7117C65.9463 17.0374 65.4889 17.3649 65.026 17.6871L64.9537 17.7354L64.513 17.4061C62.6168 15.9672 60.3355 14.3261 57.8097 13.0626C57.2042 12.7602 56.4042 12.3861 55.5876 12.1947C55.0599 12.0712 54.5469 12.0085 54.0507 12.0085" fill="#BF0442" />
		<path d="M54.5973 24.1656C52.5696 24.1656 50.7234 23.0793 49.6809 21.6637C48.0199 19.4069 48.0977 16.2804 49.8642 14.2331C51.553 12.2734 53.6159 11.5683 55.9954 12.1338C56.8064 12.3271 57.5916 12.6958 58.1878 12.9982C60.6377 14.2384 62.8413 15.8438 64.6763 17.2504L64.9634 17.467C65.3837 17.1699 65.7985 16.871 66.2096 16.5721C67.1873 15.8634 68.1984 15.1315 69.2353 14.4872C70.4668 13.723 71.8426 13.0018 73.3203 12.3468C75.3424 11.4502 77.896 12.0014 79.6718 13.7212C81.4846 15.4787 82.0235 18.1005 81.0439 20.402C80.0366 22.7679 77.7071 24.2641 75.2294 24.1388C74.4295 24.0976 73.5314 23.8542 72.4815 23.3997C70.0779 22.3563 67.9502 20.8333 65.7985 19.2334C65.6189 19.0991 65.4393 18.9631 65.2485 18.8182L65.0022 18.6302L64.9504 18.6696C64.8411 18.7484 64.73 18.8307 64.6208 18.913C62.7987 20.3018 60.6043 21.8856 58.1563 23.1169C57.8045 23.2941 57.4379 23.4498 57.0823 23.6019L56.8601 23.6967C56.1028 24.0224 55.338 24.1674 54.5973 24.1674M54.4603 12.1732C52.79 12.1732 51.3086 12.9105 50.0457 14.378C48.3458 16.3484 48.2736 19.3586 49.8735 21.5313C51.2401 23.3889 54.0455 24.656 56.7638 23.4856L56.9879 23.3907C57.3397 23.2404 57.7027 23.0847 58.0471 22.9129C60.4784 21.6887 62.6598 20.1121 64.4745 18.7305C64.5856 18.6463 64.6986 18.564 64.8097 18.4835L65.0059 18.3403L65.3948 18.6356C65.5855 18.7806 65.7633 18.9166 65.9411 19.049C68.0798 20.6418 70.1964 22.1558 72.5759 23.1885C73.5981 23.6323 74.4702 23.8685 75.2406 23.9079C77.5978 24.0314 79.8551 22.5872 80.8254 20.3107C81.7531 18.1273 81.2235 15.5431 79.5033 13.8769C77.796 12.2233 75.3498 11.69 73.4166 12.5472C71.9481 13.1987 70.5834 13.9145 69.3613 14.6733C68.3298 15.314 67.3669 16.0102 66.3485 16.7493C65.9133 17.0643 65.4744 17.3829 65.0282 17.696L64.956 17.7462L64.5282 17.4222C62.7024 16.0227 60.5081 14.4246 58.0767 13.1933C57.4934 12.898 56.7231 12.5365 55.9379 12.3486C55.4306 12.2269 54.9362 12.1678 54.4603 12.1678" fill="#BF0442" />
		<path d="M41.285 63.7741C41.5517 63.8618 41.6832 64.0515 41.6832 64.3432C41.6832 64.7369 41.3887 64.9338 40.8017 64.9338H38.9463V62.6824H40.8277C41.0628 62.6824 41.2499 62.7379 41.3832 62.8506C41.5184 62.9616 41.5869 63.1119 41.5869 63.298C41.5869 63.5039 41.4869 63.6613 41.2832 63.7741M40.8332 63.6255C40.9406 63.6255 41.0295 63.5951 41.1017 63.5379C41.1739 63.4788 41.2091 63.4054 41.2091 63.3213C41.2091 63.2282 41.1776 63.1567 41.1128 63.103C41.048 63.0493 40.961 63.0224 40.848 63.0224H39.3296V63.6291H40.8332V63.6255ZM40.8036 64.5991C41.1258 64.5991 41.2869 64.4971 41.2869 64.2913C41.2869 64.0712 41.1462 63.962 40.8647 63.962H39.3296V64.5991H40.8036Z" fill="#BF0442" />
		<path d="M45.6157 62.6824L44.3417 64.0443V64.9338H43.9547V64.0443L42.6807 62.6824H43.1621L44.1509 63.7347L45.1342 62.6824H45.6157Z" fill="#BF0442" />
		<path d="M51.0466 64.9338H50.567L48.7875 63.0887V64.9338H48.4023V62.6824H48.8819L50.6615 64.5311V62.6824H51.0466V64.9338Z" fill="#BF0442" />
		<path d="M55.4044 63.8045C55.4044 64.1732 55.2489 64.4721 54.9341 64.7011C54.66 64.8998 54.3175 65 53.9101 65C53.5027 65 53.1546 64.8998 52.8805 64.6993C52.5676 64.4703 52.4102 64.1732 52.4102 63.8063C52.4102 63.4394 52.5694 63.1495 52.8861 62.9169C53.1638 62.7146 53.5064 62.6126 53.9101 62.6126C54.3138 62.6126 54.6563 62.7146 54.9304 62.9169C55.2452 63.1495 55.4026 63.4466 55.4026 63.8063M55.0007 63.8063C55.0007 63.5432 54.8859 63.3303 54.6526 63.1656C54.4526 63.0242 54.2045 62.9544 53.9101 62.9544C53.586 62.9544 53.3231 63.035 53.1175 63.196C52.9138 63.3571 52.812 63.5611 52.812 63.8063C52.812 64.0515 52.912 64.268 53.1101 64.4237C53.3101 64.5812 53.5749 64.6582 53.9082 64.6582C54.2415 64.6582 54.5026 64.5794 54.7008 64.4219C54.8989 64.2645 54.9989 64.0586 54.9989 63.8063" fill="#BF0442" />
		<path d="M59.2073 64.9338H56.7686V62.6824H59.1166V63.0189H57.1537V63.5969H58.5185V63.9334H57.1537V64.5991H59.2073V64.9338Z" fill="#BF0442" />
		<path d="M62.6831 64.9338H60.498V62.6824H60.8832V64.5991H62.6831V64.9338Z" fill="#BF0442" />
		<path d="M64.2299 62.6824H63.8447V64.9338H64.2299V62.6824Z" fill="#BF0442" />
		<path d="M68.3258 64.9338H67.9036L67.6351 64.4309H66.0667L65.7982 64.9338H65.376L66.6092 62.6824H67.0944L68.3277 64.9338H68.3258ZM67.4481 64.0944L66.8555 63.0045L66.2556 64.0944H67.4499H67.4481Z" fill="#BF0442" />
		<path d="M72.9918 62.6824C73.2307 62.6824 73.4196 62.7468 73.5584 62.8739C73.6973 63.001 73.7677 63.1728 73.7677 63.3857C73.7677 63.6094 73.6955 63.7812 73.551 63.8994C73.4066 64.0175 73.1955 64.0765 72.9177 64.0765H71.5326V64.9338H71.1475V62.6824H72.9937H72.9918ZM72.9251 63.7401C73.2233 63.7401 73.3714 63.6238 73.3714 63.3929C73.3714 63.1441 73.214 63.0189 72.8992 63.0189H71.5326V63.7401H72.9251Z" fill="#BF0442" />
		<path d="M75.3051 62.6824H74.9199V64.9338H75.3051V62.6824Z" fill="#BF0442" />
		<path d="M79.5118 63.196L79.1618 63.3177C78.9248 63.0743 78.5952 62.9544 78.1693 62.9544C77.8489 62.9544 77.586 63.035 77.3841 63.1942C77.1804 63.3535 77.0786 63.5575 77.0786 63.8045C77.0786 64.0515 77.1786 64.2662 77.3804 64.4219C77.5804 64.5776 77.8508 64.6564 78.1933 64.6564C78.6044 64.6564 78.9285 64.5329 79.1637 64.2859L79.4951 64.4631C79.3285 64.651 79.1396 64.7888 78.9285 64.8729C78.7174 64.957 78.4637 64.9982 78.1693 64.9982C77.7582 64.9982 77.4156 64.8998 77.1434 64.6993C76.8323 64.472 76.6768 64.1732 76.6768 63.8045C76.6768 63.4358 76.8342 63.1459 77.1508 62.9151C77.4249 62.7146 77.7656 62.6144 78.1693 62.6144C78.7544 62.6144 79.2007 62.8095 79.5118 63.1996" fill="#BF0442" />
		<path d="M83.4771 64.9338H83.0549L82.7845 64.4309H81.2161L80.9476 64.9338H80.5254L81.7587 62.6824H82.2438L83.4771 64.9338ZM82.5975 64.0944L82.0049 63.0045L81.4031 64.0944H82.5975Z" fill="#BF0442" />
		<path d="M86.9267 64.9338H84.3936V64.5991L86.3175 63.0224H84.4232V62.6824H86.8397V63.0224L84.9194 64.5955L86.9267 64.5991V64.9338Z" fill="#BF0442" />
		<path d="M91.0539 63.8045C91.0539 64.1732 90.8984 64.4721 90.5836 64.7011C90.3095 64.8998 89.9688 65 89.5614 65C89.1541 65 88.8059 64.8998 88.5319 64.6993C88.2171 64.4703 88.0615 64.1732 88.0615 63.8063C88.0615 63.4394 88.2208 63.1495 88.5374 62.9169C88.817 62.7146 89.1578 62.6126 89.5614 62.6126C89.9651 62.6126 90.3058 62.7146 90.5799 62.9169C90.8965 63.1495 91.0539 63.4466 91.0539 63.8063M90.6521 63.8063C90.6521 63.5432 90.5355 63.3303 90.304 63.1656C90.104 63.0242 89.8577 62.9544 89.5614 62.9544C89.2374 62.9544 88.9726 63.035 88.7689 63.196C88.5652 63.3571 88.4634 63.5611 88.4634 63.8063C88.4634 64.0515 88.5633 64.268 88.7633 64.4237C88.9633 64.5812 89.2281 64.6582 89.5614 64.6582C89.8948 64.6582 90.1558 64.5794 90.354 64.4219C90.5521 64.2645 90.6521 64.0586 90.6521 63.8063Z" fill="#BF0442" />
	</g>
</svg>
