<svg width="22" height="22" viewBox="0 0 22 22" fill="none" xmlns="http://www.w3.org/2000/svg">
	<rect x="0.223389" y="0.111694" width="21.7767" height="21.7767" rx="7.35" fill="var(--color-black)" />
	<path d="M5.51688 8.96432H7.89409V16.6147H5.51688V8.96432ZM6.70638 5.1615C7.46658 5.1615 8.08369 5.77861 8.08369 6.5406C8.08369 7.3026 7.46658 7.91971 6.70638 7.91971C5.94438 7.91971 5.32727 7.3026 5.32727 6.5406C5.32549 5.7804 5.94259 5.1615 6.70638 5.1615Z" fill="var(--color-white)" />
	<path d="M9.38586 8.96434H11.6665V10.009H11.6987C12.0153 9.40795 12.7898 8.77295 13.9489 8.77295C16.3565 8.77295 16.8019 10.3578 16.8019 12.4166V16.6147H14.4247V12.896C14.4247 12.007 14.4086 10.8675 13.1887 10.8675C11.9509 10.8675 11.7613 11.8335 11.7613 12.8316V16.6165H9.38586V8.96434Z" fill="var(--color-white)" />
</svg>
