<svg width="24" height="18" viewBox="0 0 24 18" fill="none" xmlns="http://www.w3.org/2000/svg">
	<rect x="0.1" y="0.1" width="23.8" height="17.8" rx="0.9" fill="var(--color-white)" stroke="#D9D9D9" stroke-width="0.2" />
	<path d="M13.7792 9.09521C13.7792 11.9545 11.6843 14.2724 9.10006 14.2724C6.51583 14.2724 4.4209 11.9545 4.4209 9.09521C4.4209 6.2359 6.51583 3.91797 9.10006 3.91797C11.6843 3.91797 13.7792 6.2359 13.7792 9.09521Z" fill="#333333" />
	<path d="M19.8495 9.09521C19.8495 11.9545 17.7546 14.2724 15.1704 14.2724C12.5861 14.2724 10.4912 11.9545 10.4912 9.09521C10.4912 6.2359 12.5861 3.91797 15.1704 3.91797C17.7546 3.91797 19.8495 6.2359 19.8495 9.09521Z" fill="#A7A7A7" />
	<path fill-rule="evenodd" clip-rule="evenodd" d="M12.1352 5.15479C13.1413 6.10439 13.7792 7.51738 13.7792 9.09523C13.7792 10.6731 13.1413 12.0861 12.1352 13.0357C11.1292 12.0861 10.4912 10.6731 10.4912 9.09523C10.4912 7.51738 11.1292 6.10439 12.1352 5.15479Z" fill="#7A7A7A" />
</svg>
