<svg width="25" height="18" viewBox="0 0 25 18" fill="none" xmlns="http://www.w3.org/2000/svg">
	<rect x="0.1" y="0.1" width="24.8" height="17.8" rx="0.9" fill="var(--color-white)" stroke="#D9D9D9" stroke-width="0.2" />
	<path fill-rule="evenodd" clip-rule="evenodd" d="M7.07171 11.4307H5.96056C5.88452 11.4307 5.81985 11.4887 5.80799 11.5675L5.35859 14.5593C5.34966 14.6183 5.3932 14.6715 5.45023 14.6715H5.9807C6.05674 14.6715 6.12141 14.6135 6.13327 14.5346L6.25448 13.7276C6.26617 13.6486 6.331 13.5907 6.40688 13.5907H6.75863C7.49058 13.5907 7.91299 13.2187 8.02337 12.4818C8.07307 12.1593 8.02547 11.906 7.88164 11.7285C7.72374 11.5338 7.44359 11.4307 7.07171 11.4307ZM7.19991 12.5234C7.13916 12.942 6.83451 12.942 6.53994 12.942H6.37227L6.4899 12.1601C6.49688 12.1129 6.53588 12.0781 6.58137 12.0781H6.65822C6.85888 12.0781 7.04818 12.0781 7.146 12.1982C7.20427 12.2699 7.22216 12.3763 7.19991 12.5234ZM10.3932 12.51H9.86112C9.81578 12.51 9.77661 12.5448 9.76961 12.5921L9.74608 12.7483L9.70886 12.6917C9.59367 12.5161 9.33683 12.4575 9.08044 12.4575C8.49239 12.4575 7.99021 12.9251 7.89239 13.581C7.84156 13.9082 7.91382 14.2211 8.09059 14.4393C8.25277 14.6399 8.4848 14.7235 8.76081 14.7235C9.23457 14.7235 9.49736 14.4036 9.49736 14.4036L9.4736 14.5589C9.46465 14.6183 9.50818 14.6715 9.56488 14.6715H10.0442C10.1204 14.6715 10.1847 14.6134 10.1968 14.5345L10.4844 12.6222C10.4934 12.5634 10.4501 12.51 10.3932 12.51ZM9.65149 13.5974C9.60014 13.9166 9.35886 14.1308 9.05119 14.1308C8.89668 14.1308 8.77314 14.0788 8.6939 13.9802C8.61525 13.8823 8.58532 13.7429 8.61036 13.5877C8.65833 13.2712 8.90367 13.05 9.20668 13.05C9.35773 13.05 9.48059 13.1026 9.56149 13.2021C9.64254 13.3026 9.67473 13.4428 9.65149 13.5974ZM12.6924 12.5099H13.2271C13.302 12.5099 13.3457 12.5981 13.3032 12.6626L11.5247 15.358C11.4959 15.4016 11.4485 15.4276 11.3978 15.4276H10.8638C10.7886 15.4276 10.7447 15.3387 10.7882 15.2741L11.3419 14.4533L10.753 12.6385C10.7326 12.5754 10.777 12.5099 10.8409 12.5099H11.3663C11.4346 12.5099 11.4948 12.5569 11.5145 12.6255L11.8271 13.7216L12.5646 12.581C12.5935 12.5365 12.6414 12.5099 12.6924 12.5099Z" fill="#333333" />
	<path fill-rule="evenodd" clip-rule="evenodd" d="M18.4899 14.5594L18.946 11.5129C18.953 11.4656 18.992 11.4308 19.0373 11.4307H19.5507C19.6074 11.4307 19.6509 11.484 19.642 11.5431L19.1923 14.5347C19.1806 14.6137 19.1159 14.6717 19.0397 14.6717H18.5812C18.5245 14.6717 18.481 14.6185 18.4899 14.5594ZM14.9975 11.4308H13.8862C13.8103 11.4308 13.7457 11.4888 13.7338 11.5676L13.2844 14.5594C13.2754 14.6185 13.319 14.6717 13.3757 14.6717H13.946C13.999 14.6717 14.0443 14.6311 14.0526 14.5759L14.1801 13.7278C14.1918 13.6488 14.2566 13.5908 14.3325 13.5908H14.6841C15.4162 13.5908 15.8385 13.2189 15.949 12.4819C15.9988 12.1595 15.9509 11.9062 15.8072 11.7287C15.6493 11.5339 15.3694 11.4308 14.9975 11.4308ZM15.1257 12.5235C15.0651 12.9422 14.7605 12.9422 14.4657 12.9422H14.2982L14.416 12.1603C14.423 12.1131 14.4617 12.0783 14.5073 12.0783H14.5841C14.7847 12.0783 14.9742 12.0783 15.0719 12.1983C15.1302 12.27 15.148 12.3765 15.1257 12.5235ZM18.3187 12.5101H17.787C17.7413 12.5101 17.7025 12.5449 17.6957 12.5922L17.6721 12.7485L17.6348 12.6919C17.5196 12.5163 17.2629 12.4576 17.0065 12.4576C16.4184 12.4576 15.9164 12.9252 15.8186 13.5812C15.7679 13.9084 15.8399 14.2212 16.0166 14.4394C16.1791 14.64 16.4108 14.7236 16.6869 14.7236C17.1606 14.7236 17.4233 14.4037 17.4233 14.4037L17.3996 14.559C17.3907 14.6184 17.4342 14.6716 17.4913 14.6716H17.9704C18.0463 14.6716 18.1109 14.6136 18.1228 14.5346L18.4106 12.6224C18.4193 12.5636 18.3758 12.5101 18.3187 12.5101ZM17.5771 13.5975C17.526 13.9167 17.2845 14.131 16.9767 14.131C16.8225 14.131 16.6987 14.079 16.6194 13.9804C16.5408 13.8825 16.5112 13.743 16.536 13.5878C16.5842 13.2713 16.8292 13.0501 17.1322 13.0501C17.2833 13.0501 17.4061 13.1028 17.4871 13.2022C17.5684 13.3027 17.6006 13.443 17.5771 13.5975Z" fill="#777777" />
	<path d="M11.1842 10.3604L11.3208 9.4493L11.0165 9.44188H9.56348L10.5733 2.71901C10.5763 2.69871 10.5866 2.67979 10.6014 2.66635C10.6163 2.65291 10.6354 2.64551 10.6553 2.64551H13.1053C13.9187 2.64551 14.48 2.82323 14.773 3.174C14.9104 3.33856 14.9979 3.51051 15.0403 3.69975C15.0846 3.89832 15.0854 4.13555 15.0421 4.42489L15.0389 4.44601V4.6314L15.1763 4.71314C15.2921 4.77758 15.3839 4.85136 15.4545 4.93583C15.5721 5.07652 15.6481 5.25534 15.6802 5.46734C15.7133 5.68538 15.7024 5.94482 15.6481 6.23855C15.5854 6.57644 15.484 6.87072 15.3472 7.11152C15.2212 7.33339 15.0609 7.51738 14.8705 7.66004C14.6887 7.79551 14.4727 7.89838 14.2284 7.96422C13.9918 8.02888 13.722 8.06156 13.426 8.06156H13.2354C13.099 8.06156 12.9666 8.11312 12.8627 8.20556C12.7584 8.29991 12.6894 8.42875 12.6683 8.56975L12.6539 8.65177L12.4126 10.2575L12.4016 10.3165C12.3987 10.3352 12.3938 10.3445 12.3865 10.3508C12.3799 10.3565 12.3705 10.3604 12.3614 10.3604H11.1842Z" fill="#010202" />
	<path d="M15.3061 4.46729C15.2988 4.51637 15.2904 4.56656 15.281 4.61812C14.9579 6.35993 13.8525 6.96166 12.4407 6.96166H11.7219C11.5493 6.96166 11.4038 7.09329 11.3769 7.27211L11.0088 9.7229L10.9046 10.4176C10.8871 10.535 10.9733 10.6408 11.0861 10.6408H12.3611C12.5121 10.6408 12.6403 10.5256 12.664 10.3693L12.6766 10.3013L12.9166 8.70179L12.9321 8.61408C12.9555 8.45721 13.084 8.34203 13.235 8.34203H13.4257C14.6609 8.34203 15.6279 7.81545 15.9105 6.29164C16.0285 5.65509 15.9674 5.12358 15.655 4.74977C15.5605 4.63705 15.4432 4.54352 15.3061 4.46729Z" fill="#777777" />
	<path d="M14.9682 4.32587C14.9188 4.31078 14.8679 4.29707 14.8156 4.28473C14.7631 4.27267 14.7093 4.26197 14.654 4.25265C14.4601 4.21973 14.2478 4.2041 14.0203 4.2041H12.1C12.0527 4.2041 12.0078 4.21534 11.9676 4.23564C11.879 4.28034 11.8132 4.36838 11.7973 4.47616L11.3887 7.19296L11.377 7.27222C11.4039 7.0934 11.5494 6.96176 11.722 6.96176H12.4408C13.8526 6.96176 14.958 6.35976 15.2811 4.61823C15.2907 4.56667 15.2988 4.51648 15.3061 4.46739C15.2244 4.42186 15.1358 4.38292 15.0405 4.34973C15.017 4.3415 14.9928 4.33355 14.9682 4.32587Z" fill="#333333" />
	<path d="M11.7973 4.47625C11.8132 4.36847 11.8791 4.28043 11.9676 4.236C12.0081 4.2157 12.0527 4.20446 12.1 4.20446H14.0203C14.2479 4.20446 14.4602 4.22009 14.6539 4.25301C14.7094 4.26233 14.7632 4.27303 14.8157 4.28509C14.8679 4.29744 14.9188 4.31115 14.9682 4.32623C14.9927 4.33391 15.017 4.34186 15.0408 4.34982C15.1361 4.383 15.2247 4.42222 15.3064 4.46748C15.4026 3.82379 15.3057 3.38553 14.9743 2.98868C14.6088 2.55179 13.9493 2.36475 13.1054 2.36475H10.6553C10.4829 2.36475 10.3359 2.49638 10.3092 2.67548L9.28875 9.46746C9.2686 9.60183 9.36732 9.72309 9.49635 9.72309H11.009L11.3888 7.19304L11.7973 4.47625Z" fill="#333333" />
</svg>
