<svg width="23" height="22" viewBox="0 0 23 22" fill="none" xmlns="http://www.w3.org/2000/svg">
	<rect x="0.482178" y="0.111694" width="21.7767" height="21.7767" rx="7.35" fill="var(--color-black)" />
	<path d="M11.3813 3.38904C7.17192 3.38904 3.75952 6.80144 3.75952 11.0109C3.75952 14.2403 5.76951 16.9994 8.60483 18.1101C8.53732 17.5068 8.47852 16.5792 8.63096 15.9215C8.77033 15.327 9.5238 12.1324 9.5238 12.1324C9.5238 12.1324 9.29515 11.6751 9.29515 11C9.29515 9.93945 9.90925 9.14896 10.6736 9.14896C11.3247 9.14896 11.6383 9.63676 11.6383 10.2226C11.6383 10.8759 11.2224 11.8536 11.0068 12.7595C10.8282 13.5174 11.3879 14.1358 12.1348 14.1358C13.4893 14.1358 14.5303 12.7073 14.5303 10.645C14.5303 8.82013 13.2193 7.54402 11.3465 7.54402C9.17755 7.54402 7.9058 9.17074 7.9058 10.8519C7.9058 11.5074 8.1584 12.2086 8.47199 12.5919C8.53514 12.6681 8.54385 12.7334 8.52425 12.8096C8.46546 13.0513 8.33697 13.5674 8.31302 13.6741C8.28035 13.8135 8.20196 13.844 8.05823 13.7765C7.10659 13.3344 6.51209 11.9407 6.51209 10.8236C6.51209 8.41944 8.25858 6.21129 11.549 6.21129C14.1927 6.21129 16.2484 8.09497 16.2484 10.6124C16.2484 13.243 14.5934 15.3575 12.2938 15.3575C11.5207 15.3575 10.7956 14.9568 10.5473 14.4821C10.5473 14.4821 10.1662 15.9367 10.0726 16.2939C9.90054 16.9559 9.43669 17.7856 9.12529 18.293C9.83738 18.5129 10.5952 18.6327 11.3813 18.6327C15.5908 18.6327 19.0032 15.2203 19.0032 11.0109C19.0032 6.80144 15.5908 3.38904 11.3813 3.38904Z" fill="var(--color-white)" />
</svg>
