<svg width="24" height="18" viewBox="0 0 24 18" fill="none" xmlns="http://www.w3.org/2000/svg">
	<rect x="0.1" y="0.1" width="23.8" height="17.8" rx="0.9" fill="var(--color-white)" stroke="#D9D9D9" stroke-width="0.2" />
	<path fill-rule="evenodd" clip-rule="evenodd" d="M7.28611 12.1937H5.83218L4.74191 7.64428C4.69016 7.43501 4.58028 7.25 4.41865 7.1628C4.01529 6.94367 3.57082 6.76928 3.08594 6.68132V6.50617H5.42811C5.75137 6.50617 5.99381 6.76928 6.03421 7.07485L6.59991 10.3565L8.05313 6.50617H9.46666L7.28611 12.1937ZM10.2748 12.1937H8.90168L10.0324 6.50617H11.4055L10.2748 12.1937ZM13.182 8.08179C13.2224 7.77546 13.4648 7.60031 13.7477 7.60031C14.1921 7.55633 14.6763 7.64428 15.0804 7.86266L15.3228 6.63811C14.9187 6.46296 14.4743 6.375 14.0709 6.375C12.7382 6.375 11.7684 7.16281 11.7684 8.25618C11.7684 9.08796 12.4553 9.5247 12.9402 9.78781C13.4648 10.0502 13.6668 10.2253 13.6264 10.4877C13.6264 10.8812 13.2224 11.0563 12.819 11.0563C12.3341 11.0563 11.8492 10.9252 11.4055 10.706L11.163 11.9313C11.6479 12.1497 12.1725 12.2377 12.6574 12.2377C14.1517 12.2809 15.0804 11.4938 15.0804 10.3125C15.0804 8.82485 13.182 8.73766 13.182 8.08179ZM19.8859 12.1937L18.7957 6.50617H17.6246C17.3821 6.50617 17.1397 6.68132 17.0589 6.94367L15.04 12.1937H16.4535L16.7356 11.3627H18.4724L18.634 12.1937H19.8859ZM17.8266 8.03781L18.23 10.1813H17.0993L17.8266 8.03781Z" fill="#858585" />
</svg>
